<?xml version="1.0" encoding="UTF-8" standalone="no"?>
<!-- Created with Inkscape (http://www.inkscape.org/) -->

<svg
   width="67.591576mm"
   height="67.640694mm"
   viewBox="0 0 67.591576 67.640694"
   version="1.1"
   id="svg1"
   xml:space="preserve"
   xmlns:inkscape="http://www.inkscape.org/namespaces/inkscape"
   xmlns:sodipodi="http://sodipodi.sourceforge.net/DTD/sodipodi-0.dtd"
   xmlns="http://www.w3.org/2000/svg"
   xmlns:svg="http://www.w3.org/2000/svg"><sodipodi:namedview
     id="namedview1"
     pagecolor="#ffffff"
     bordercolor="#000000"
     borderopacity="0.25"
     inkscape:showpageshadow="2"
     inkscape:pageopacity="0.0"
     inkscape:pagecheckerboard="0"
     inkscape:deskcolor="#d1d1d1"
     inkscape:document-units="px" /><defs
     id="defs1" /><g
     inkscape:label="Camada 1"
     inkscape:groupmode="layer"
     id="layer1"
     transform="translate(-71.20421,-114.67965)"><g
       id="g2"
       transform="matrix(0.49999999,0,0,0.49999999,1.794109e-6,198.46347)"><rect
         style="fill:#ffffff;stroke:#000000;stroke-width:0.529167"
         id="rect2"
         width="95.971832"
         height="85.062828"
         x="159.81636"
         y="-145.32062" /><path
         style="fill:#2aa81a;fill-opacity:1"
         d="m 204.68115,-32.484966 c -11.45706,-0.87764 -22.88026,-4.85307 -32.37892,-11.2683 -16.517,-11.1553 -27.07728,-28.42831 -29.57401,-48.37295 -0.42639,-3.40611 -0.42639,-12.204304 0,-15.610414 2.44495,-19.53106 12.64261,-36.54636 28.59829,-47.71767 15.40359,-10.78476 35.09216,-14.63341 53.57875,-10.47336 22.56206,5.07716 41.29972,21.83515 48.93206,43.7623 7.83236,22.501804 3.22767,47.497584 -12.11384,65.757894 -14.01328,16.67938 -35.26246,25.5909 -57.04233,23.9225 z m -18.08658,-35.56659 8.37973,-1.98679 2.13319,0.91163 c 4.48927,1.91853 8.83497,2.66806 14.27141,2.46149 8.58923,-0.32636 16.09057,-3.63428 22.28224,-9.82594 4.88282,-4.88283 7.81175,-10.29265 9.297,-17.17184 0.73219,-3.39126 0.63947,-10.612564 -0.17901,-13.941334 -1.57127,-6.39044 -4.32319,-11.40708 -8.79092,-16.02555 -11.25975,-11.63964 -28.95774,-13.5394 -42.68504,-4.58193 -2.62678,1.71405 -7.54429,6.58925 -9.21318,9.13391 -3.83276,5.84403 -5.73577,12.11265 -5.73577,18.89387 0,4.684054 0.95236,9.379084 2.67505,13.187654 0.42049,0.92963 0.76453,1.95238 0.76453,2.27277 0,0.32039 -0.77391,4.30247 -1.71979,8.84906 -0.94589,4.54659 -1.71979,8.42667 -1.71979,8.62239 0,0.52238 0.7539,1.18741 1.34608,1.18741 0.283,0 4.28542,-0.89406 8.89427,-1.9868 z m 19.37165,-6.20042 c -2.51193,-0.4617 -5.36327,-1.37715 -7.72401,-2.47988 l -2.44112,-1.14027 -4.97358,1.17264 c -2.73547,0.64495 -5.02791,1.1183 -5.09433,1.05189 -0.0664,-0.0664 0.35316,-2.39098 0.93237,-5.1657 l 1.05311,-5.04495 -1.15427,-2.47253 c -2.22215,-4.75997 -2.9767,-8.44609 -2.72247,-13.299724 0.60382,-11.52792 8.41815,-21.03932 19.71796,-24.00021 2.89847,-0.75948 7.71997,-0.93576 10.81363,-0.39534 17.33963,3.02896 26.76924,21.7101 18.98124,37.604004 -3.25956,6.65217 -9.74448,11.80863 -17.18074,13.66119 -2.36261,0.58859 -8.19282,0.87924 -10.20779,0.50888 z m 16.09792,-9.94254 c 2.0437,-0.60692 5.36552,-3.86159 5.99553,-5.87434 0.24831,-0.79329 -0.49634,-2.30344 -1.32111,-2.67923 -1.17244,-0.5342 -7.08807,-2.15625 -7.86386,-2.15625 -0.5562,0 -1.16553,0.391 -2.30897,1.48166 -1.88342,1.79648 -2.61925,1.89567 -4.74864,0.64014 -3.0419,-1.79357 -7.55609,-5.83802 -9.21362,-8.254894 -1.09361,-1.59459 -1.08582,-2.47561 0.0349,-3.94918 1.08973,-1.43281 1.49708,-2.18484 1.49708,-2.76383 0,-0.77243 -3.16038,-7.63748 -3.73909,-8.12213 -0.32344,-0.27088 -0.99004,-0.46302 -1.60639,-0.46302 -0.94052,0 -1.22989,0.17736 -2.69794,1.65364 -2.28764,2.30047 -3.06908,3.9669 -3.06908,6.5448 0,1.10502 0.17706,2.68892 0.39347,3.51978 2.03795,7.824224 12.78774,18.057454 21.30236,20.278714 2.40644,0.62779 5.51154,0.68872 7.34534,0.14414 z"
         id="path2" /></g></g></svg>
