<?xml version="1.0" encoding="UTF-8" standalone="no"?>
<!-- Created with Inkscape (http://www.inkscape.org/) -->

<svg
   width="67.591576mm"
   height="67.640694mm"
   viewBox="0 0 67.591576 67.640694"
   version="1.1"
   id="svg1"
   xml:space="preserve"
   xmlns:inkscape="http://www.inkscape.org/namespaces/inkscape"
   xmlns:sodipodi="http://sodipodi.sourceforge.net/DTD/sodipodi-0.dtd"
   xmlns="http://www.w3.org/2000/svg"
   xmlns:svg="http://www.w3.org/2000/svg"><sodipodi:namedview
     id="namedview1"
     pagecolor="#ffffff"
     bordercolor="#000000"
     borderopacity="0.25"
     inkscape:showpageshadow="2"
     inkscape:pageopacity="0.0"
     inkscape:pagecheckerboard="0"
     inkscape:deskcolor="#d1d1d1"
     inkscape:document-units="px" /><defs
     id="defs1" /><g
     inkscape:label="Camada 1"
     inkscape:groupmode="layer"
     id="layer1"
     transform="translate(-71.20421,-114.67965)"><g
       id="g2"><rect
         style="fill:#ffffff;stroke:#000000;stroke-width:0.264583"
         id="rect2"
         width="47.985916"
         height="42.531414"
         x="79.90818"
         y="125.80316" /><path
         style="fill:#000000;fill-opacity:1;stroke-width:0.5"
         d="m 102.34057,182.22099 c -5.728525,-0.43882 -11.440125,-2.42654 -16.189455,-5.63415 -8.2585,-5.57765 -13.53864,-14.21416 -14.787005,-24.18648 -0.213195,-1.70305 -0.213195,-6.10215 0,-7.8052 1.222475,-9.76553 6.321305,-18.27318 14.299145,-23.85884 7.701795,-5.39238 17.546075,-7.3167 26.789375,-5.23668 11.28103,2.53858 20.64986,10.91758 24.46603,21.88115 3.91618,11.2509 1.61383,23.74879 -6.05692,32.87895 -7.00664,8.33969 -17.63123,12.79545 -28.52117,11.96125 z m -9.043285,-17.7833 4.189865,-0.99339 1.066595,0.45581 c 2.244635,0.95927 4.417485,1.33403 7.135705,1.23075 4.29461,-0.16318 8.04528,-1.81714 11.14112,-4.91297 2.44141,-2.44142 3.90587,-5.14633 4.6485,-8.58592 0.36609,-1.69563 0.31973,-5.30628 -0.0895,-6.97067 -0.78563,-3.19522 -2.16159,-5.70354 -4.39546,-8.01277 -5.62987,-5.81982 -14.47887,-6.7697 -21.342515,-2.29097 -1.31339,0.85703 -3.772145,3.29463 -4.60659,4.56696 -1.91638,2.92201 -2.867885,6.05632 -2.867885,9.44693 0,2.34203 0.47618,4.68954 1.337525,6.59383 0.210245,0.46481 0.382265,0.97619 0.382265,1.13638 0,0.1602 -0.386955,2.15124 -0.859895,4.42453 -0.472945,2.2733 -0.859895,4.21334 -0.859895,4.3112 0,0.26119 0.37695,0.5937 0.67304,0.5937 0.1415,0 2.14271,-0.44703 4.447135,-0.9934 z m 9.685825,-3.10021 c -1.25597,-0.23085 -2.68164,-0.68857 -3.862005,-1.23994 l -1.22056,-0.57013 -2.48679,0.58632 c -1.367735,0.32247 -2.513955,0.55915 -2.547165,0.52594 -0.0332,-0.0332 0.17658,-1.19549 0.466185,-2.58285 l 0.526555,-2.52247 -0.577135,-1.23627 c -1.111075,-2.37998 -1.48835,-4.22304 -1.361235,-6.64986 0.30191,-5.76396 4.209075,-10.51966 9.85898,-12.0001 1.44923,-0.37974 3.85998,-0.46788 5.40681,-0.19767 8.66982,1.51448 13.38462,10.85505 9.49062,18.802 -1.62978,3.32608 -4.87224,5.90431 -8.59037,6.83059 -1.1813,0.2943 -4.09641,0.43962 -5.10389,0.25444 z m 8.04896,-4.97127 c 1.02185,-0.30346 2.68276,-1.93079 2.99776,-2.93717 0.12416,-0.39664 -0.24817,-1.15172 -0.66055,-1.33961 -0.58622,-0.2671 -3.54404,-1.07813 -3.93193,-1.07813 -0.2781,0 -0.58277,0.1955 -1.15449,0.74083 -0.94171,0.89824 -1.30962,0.94784 -2.37432,0.32007 -1.52095,-0.89678 -3.77804,-2.91901 -4.60681,-4.12744 -0.5468,-0.7973 -0.54291,-1.23781 0.0174,-1.97459 0.54487,-0.71641 0.74854,-1.09242 0.74854,-1.38192 0,-0.38621 -1.58019,-3.81874 -1.86954,-4.06106 -0.16172,-0.13544 -0.49502,-0.23151 -0.803195,-0.23151 -0.47026,0 -0.614945,0.0887 -1.34897,0.82682 -1.14382,1.15023 -1.53454,1.98345 -1.53454,3.2724 0,0.55251 0.08853,1.34446 0.196735,1.75989 1.018975,3.91211 6.39387,9.02872 10.65118,10.13935 1.20322,0.3139 2.75577,0.34436 3.67267,0.0721 z"
         id="path2" /></g></g></svg>
